# Blender v2.93.1 OBJ File: 'RocioGamesAssets.blend'
# www.blender.org
mtllib ClosetOutside.mtl
o DresserBody_Cube.013
v -1.820331 -1.839208 8.564829
v -1.820331 1.150121 8.564829
v -1.642844 -1.839208 9.799431
v -1.620840 1.115524 8.564829
v -1.820331 -1.839208 9.799431
v -1.820331 1.150121 9.799431
v -1.642844 1.150121 9.799431
v -1.642844 -1.839208 8.564829
v -1.642844 -1.839208 8.804891
v -1.642844 1.279407 8.564829
v -1.820331 -1.839208 8.804891
v -1.820331 1.150121 8.804891
v -1.642844 1.150121 9.897711
v -1.820331 1.279407 8.564829
v -1.820331 -1.839208 9.582232
v -1.820331 1.150121 9.897711
v -1.642844 -1.839208 9.582232
v -1.820331 1.150121 9.582232
v -1.642844 -1.648681 8.804891
v -1.642844 -1.648681 8.564829
v -1.642844 -1.648681 9.799431
v -1.642844 -1.648681 9.582232
v -1.820331 -1.648681 8.804891
v -1.820331 -1.648681 9.582232
v -1.642844 1.279407 9.799431
v -1.820331 1.279407 9.799431
v -1.820331 1.279407 8.804891
v -1.820331 1.279407 9.582232
v -1.642844 1.279407 9.897711
v -1.820331 1.279407 9.897711
v -1.642844 1.150121 9.897711
v -1.642844 1.279407 9.897711
v -1.642844 1.150121 8.466549
v -1.642844 1.279407 8.466549
v -1.943203 1.150121 8.564829
v -1.943203 1.150121 8.804891
v -1.943203 1.279407 8.804891
v -1.943203 1.279407 8.564829
v -1.943203 1.150121 8.804891
v -1.943203 1.150121 9.582232
v -1.943203 1.279407 9.582232
v -1.943203 1.279407 8.804891
v -1.943203 1.150121 9.582232
v -1.943203 1.150121 9.799431
v -1.943203 1.279407 9.799431
v -1.943203 1.279407 9.582232
v -1.642844 1.150121 8.466549
v -1.820331 1.150121 8.466549
v -1.820331 1.279407 8.466549
v -1.642844 1.279407 8.466549
v -1.620840 -1.486436 8.564829
v -1.620840 -0.185456 8.564829
v -1.620840 0.482333 8.564829
v -1.620840 -0.853245 8.564829
v 0.355326 -1.839208 8.564829
v 0.355326 1.150121 8.564829
v 0.177838 -1.839208 9.799431
v 0.155834 1.115524 8.564829
v 0.355326 -1.839208 9.799431
v 0.355326 1.150121 9.799431
v 0.177838 1.150121 9.799431
v 0.177838 -1.839208 8.564829
v -0.732503 1.115524 8.564829
v -0.732503 1.150121 9.799431
v 0.177838 -1.839208 8.804891
v 0.177838 1.279407 8.564829
v 0.355326 -1.839208 8.804891
v 0.355326 1.150121 8.804891
v 0.177838 1.150121 9.897711
v 0.355326 1.279407 8.564829
v 0.355326 -1.839208 9.582232
v 0.355326 1.150121 9.897711
v 0.177838 -1.839208 9.582232
v 0.355326 1.150121 9.582232
v 0.177838 -1.648681 8.804891
v 0.177838 -1.648681 8.564829
v 0.177838 -1.648681 9.799431
v -0.732503 -1.648681 9.799431
v -0.732503 -1.648681 8.564829
v -0.732503 -1.648681 8.804891
v 0.177838 -1.648681 9.582232
v -0.732503 -1.648681 9.582232
v 0.355326 -1.648681 8.804891
v 0.355326 -1.648681 9.582232
v 0.177838 1.279407 9.799431
v 0.355326 1.279407 9.799431
v 0.355326 1.279407 8.804891
v -0.732503 1.279407 9.799431
v -0.732503 1.279407 8.564829
v -0.732503 1.279407 9.582232
v 0.355326 1.279407 9.582232
v -0.732503 1.279407 8.804891
v 0.177838 1.279407 9.897711
v 0.355326 1.279407 9.897711
v 0.177838 1.150121 9.897711
v -0.732503 1.150121 9.897711
v -0.732503 1.279407 9.897711
v 0.177838 1.279407 9.897711
v -0.732503 1.150121 8.466549
v 0.177838 1.150121 8.466549
v 0.177838 1.279407 8.466549
v -0.732503 1.279407 8.466549
v 0.478198 1.150121 8.564829
v 0.478198 1.150121 8.804891
v 0.478198 1.279407 8.804891
v 0.478198 1.279407 8.564829
v 0.478198 1.150121 8.804891
v 0.478198 1.150121 9.582232
v 0.478198 1.279407 9.582232
v 0.478198 1.279407 8.804891
v 0.478198 1.150121 9.582232
v 0.478198 1.150121 9.799431
v 0.478198 1.279407 9.799431
v 0.478198 1.279407 9.582232
v 0.177838 1.150121 8.466549
v 0.355326 1.150121 8.466549
v 0.355326 1.279407 8.466549
v 0.177838 1.279407 8.466549
v -0.732503 -1.486436 8.564829
v 0.155834 -1.486436 8.564829
v 0.155834 -0.185456 8.564829
v 0.155834 0.482333 8.564829
v 0.155834 -0.853245 8.564829
v -1.642844 1.150121 8.564829
v -0.732503 1.150121 8.564829
v -1.642844 -0.853245 8.564829
v -1.642844 -1.521033 8.564829
v -0.732503 -1.521033 8.564829
v -1.642844 0.482333 8.564829
v -1.642844 -0.185456 8.564829
v 0.177838 1.150121 8.564829
v 0.177838 -0.853245 8.564829
v 0.177838 -1.521033 8.564829
v 0.177838 0.482333 8.564829
v 0.177838 -0.185456 8.564829
v -1.620840 -0.185456 9.722214
v -0.732503 -0.185456 9.722214
v -1.620840 0.482333 9.722214
v -0.732503 0.482333 9.722214
v -1.620840 -0.853245 9.722214
v -0.732503 -0.853245 9.722214
v 0.155834 -0.185456 9.722214
v 0.155834 0.482333 9.722214
v 0.155834 -0.853245 9.722214
v -1.620840 1.115524 9.722214
v -0.732503 1.115524 9.722214
v -1.620840 -1.486436 9.722214
v -0.732503 -1.486436 9.722214
v 0.155834 1.115524 9.722214
v 0.155834 -1.486436 9.722214
vt 0.375000 0.729605
vt 0.388924 0.729605
vt 0.625000 0.729605
vt 0.625000 0.750000
vt 0.375000 0.750000
vt 0.375000 0.951389
vt 0.388924 0.951389
vt 0.625000 0.951389
vt 0.625000 1.000000
vt 0.375000 1.000000
vt 0.331019 0.729605
vt 0.331019 0.750000
vt 0.331019 0.729605
vt 0.375000 0.729605
vt 0.402336 0.022674
vt 0.390038 0.120230
vt 0.390038 0.120230
vt 0.402336 0.022674
vt 0.375000 0.000000
vt 0.625000 0.000000
vt 0.625000 0.020395
vt 0.568673 0.020395
vt 0.512345 0.020395
vt 0.456018 0.020395
vt 0.399691 0.020395
vt 0.388924 0.020395
vt 0.375000 0.020395
vt 0.402336 0.022674
vt 0.455777 0.022923
vt 0.455777 0.022923
vt 0.402336 0.022674
vt 0.173611 0.729605
vt 0.125000 0.729605
vt 0.125000 0.729605
vt 0.173611 0.729605
vt 0.512185 0.022923
vt 0.455777 0.022923
vt 0.455777 0.022923
vt 0.512185 0.022923
vt 0.173611 0.750000
vt 0.125000 0.750000
vt 0.625000 0.793981
vt 0.388924 0.793981
vt 0.375000 0.793981
vt 0.668981 0.625000
vt 0.826389 0.625000
vt 0.875000 0.625000
vt 0.875000 0.729605
vt 0.875000 0.750000
vt 0.826389 0.750000
vt 0.668981 0.750000
vt 0.625000 0.750000
vt 0.625000 0.729605
vt 0.625000 0.625000
vt 0.331019 0.750000
vt 0.173611 0.750000
vt 0.386402 0.125000
vt 0.375000 0.125000
vt 0.331019 0.625000
vt 0.375000 0.625000
vt 0.125000 0.625000
vt 0.173611 0.625000
vt 0.625000 0.625000
vt 0.375000 0.951389
vt 0.625000 0.750000
vt 0.625000 0.750000
vt 0.625000 0.000000
vt 0.625000 1.000000
vt 0.625000 0.750000
vt 0.625000 0.729605
vt 0.625000 0.729605
vt 0.625000 0.750000
vt 0.625000 0.729605
vt 0.625000 0.625000
vt 0.625000 0.625000
vt 0.625000 0.729605
vt 0.625000 0.125000
vt 0.625000 0.020395
vt 0.625000 0.020395
vt 0.625000 0.125000
vt 0.625000 0.125000
vt 0.625000 0.020395
vt 0.625000 0.125000
vt 0.625000 0.951389
vt 0.625000 0.951389
vt 0.625000 1.000000
vt 0.625000 0.951389
vt 0.625000 1.000000
vt 0.625000 0.000000
vt 0.625000 0.000000
vt 0.625000 0.951389
vt 0.625000 0.793981
vt 0.625000 0.793981
vt 0.625000 0.951389
vt 0.625000 0.793981
vt 0.625000 0.793981
vt 0.625000 0.793981
vt 0.625000 0.020395
vt 0.625000 0.020395
vt 0.375000 0.729605
vt 0.375000 0.750000
vt 0.625000 0.750000
vt 0.625000 0.729605
vt 0.388924 0.729605
vt 0.375000 0.951389
vt 0.375000 1.000000
vt 0.625000 1.000000
vt 0.625000 0.951389
vt 0.388924 0.951389
vt 0.331019 0.729605
vt 0.331019 0.750000
vt 0.375000 0.729605
vt 0.331019 0.729605
vt 0.375000 0.000000
vt 0.375000 0.020395
vt 0.388924 0.020395
vt 0.399691 0.020395
vt 0.456018 0.020395
vt 0.512345 0.020395
vt 0.568673 0.020395
vt 0.625000 0.020395
vt 0.625000 0.000000
vt 0.173611 0.729605
vt 0.173611 0.729605
vt 0.125000 0.729605
vt 0.125000 0.729605
vt 0.125000 0.750000
vt 0.173611 0.750000
vt 0.375000 0.793981
vt 0.388924 0.793981
vt 0.625000 0.793981
vt 0.625000 0.729605
vt 0.625000 0.750000
vt 0.668981 0.750000
vt 0.826389 0.750000
vt 0.875000 0.750000
vt 0.875000 0.729605
vt 0.331019 0.750000
vt 0.173611 0.750000
vt 0.375000 0.951389
vt 0.625000 0.750000
vt 0.625000 0.750000
vt 0.625000 0.000000
vt 0.625000 1.000000
vt 0.625000 0.750000
vt 0.625000 0.729605
vt 0.625000 0.729605
vt 0.625000 0.750000
vt 0.625000 0.729605
vt 0.625000 0.729605
vt 0.625000 0.020395
vt 0.625000 0.020395
vt 0.625000 0.020395
vt 0.625000 1.000000
vt 0.625000 0.951389
vt 0.625000 0.951389
vt 0.625000 0.951389
vt 0.625000 1.000000
vt 0.625000 0.000000
vt 0.625000 0.000000
vt 0.625000 0.951389
vt 0.625000 0.951389
vt 0.625000 0.793981
vt 0.625000 0.793981
vt 0.625000 0.793981
vt 0.625000 0.793981
vt 0.625000 0.793981
vt 0.625000 0.020395
vt 0.625000 0.020395
vt 0.568592 0.022923
vt 0.622065 0.022674
vt 0.622065 0.022674
vt 0.568592 0.022923
vt 0.621970 0.120230
vt 0.512185 0.022923
vt 0.622065 0.022674
vt 0.568592 0.022923
vt 0.512185 0.022923
vt 0.505701 0.125000
vt 0.446052 0.125000
vt 0.565351 0.125000
vt 0.568592 0.022923
vt 0.621970 0.120230
vt 0.622065 0.022674
vn -0.0000 0.0000 1.0000
vn -1.0000 0.0000 0.0000
vn 0.0000 -1.0000 0.0000
vn 1.0000 0.0000 0.0000
vn 0.0000 1.0000 0.0000
vn 0.0000 0.0000 -1.0000
vn -0.6246 0.0000 0.7809
vn -0.6246 0.0000 -0.7809
vn 0.6246 0.0000 0.7809
vn 0.6246 0.0000 -0.7809
usemtl None
s off
f 3/1/1 21/2/1 7/3/1 6/4/1 5/5/1
f 11/6/2 23/7/2 12/8/2 2/9/2 1/10/2
f 17/11/3 3/1/3 5/5/3 15/12/3
f 3/1/4 17/11/4 22/13/4 21/14/4
f 120/15/5 119/16/5 148/17/5 150/18/5
f 1/19/6 2/20/6 124/21/6 129/22/6 130/23/6 126/24/6 127/25/6 20/26/6 8/27/6
f 51/28/4 54/29/4 140/30/4 147/31/4
f 9/32/4 8/33/4 20/34/4 19/35/4
f 121/36/2 123/37/2 144/38/2 142/39/2
f 8/33/3 9/32/3 11/40/3 1/41/3
f 5/5/2 6/4/2 18/42/2 24/43/2 15/44/2
f 90/45/5 92/46/5 89/47/5 10/48/5 14/49/5 27/50/5 28/51/5 26/52/5 25/53/5 88/54/5
f 17/11/6 15/12/6 24/55/6 22/13/6
f 11/40/1 9/32/1 19/35/1 23/56/1
f 20/26/6 127/25/6 128/57/6 79/58/6
f 82/59/3 78/60/3 21/14/3 22/13/3
f 79/61/3 80/62/3 19/35/3 20/34/3
f 80/62/3 82/59/3 22/13/3 19/35/3
f 19/35/3 22/13/3 24/55/3 23/56/3
f 78/60/1 64/63/1 7/3/1 21/14/1
f 24/43/2 18/42/2 12/8/2 23/64/2
f 30/65/5 26/52/5 45/66/5
f 48/67/3 2/20/3 35/68/3
f 16/69/1 13/70/1 29/71/1 30/65/1
f 7/3/3 13/70/3 16/69/3 6/4/3
f 25/53/4 29/71/4 13/70/4 7/3/4
f 26/52/5 30/65/5 29/71/5 25/53/5
f 44/72/3 6/4/3 16/69/3
f 31/73/1 96/74/1 97/75/1 32/76/1
f 64/63/3 96/74/3 31/73/3 7/3/3
f 25/53/5 32/76/5 97/75/5 88/54/5
f 7/3/2 31/73/2 32/76/2 25/53/2
f 99/77/6 33/78/6 34/79/6 102/80/6
f 124/21/3 33/78/3 99/77/3 125/81/3
f 10/82/2 34/79/2 33/78/2 124/21/2
f 89/83/5 102/80/5 34/79/5 10/82/5
f 35/68/2 36/84/2 37/85/2 38/86/2
f 12/8/3 36/84/3 35/68/3 2/9/3
f 27/87/1 37/85/1 36/84/1 12/8/1
f 14/88/5 38/86/5 37/85/5 27/87/5
f 38/86/5 14/89/5 49/90/5
f 39/91/2 40/92/2 41/93/2 42/94/2
f 18/42/3 40/92/3 39/91/3 12/8/3
f 28/95/1 41/93/1 40/92/1 18/42/1
f 27/87/5 42/94/5 41/93/5 28/95/5
f 12/8/6 39/91/6 42/94/6 27/87/6
f 43/96/2 44/72/2 45/66/2 46/97/2
f 6/4/3 44/72/3 43/96/3 18/42/3
f 44/72/7 16/69/7 30/65/7 45/66/7
f 28/95/5 46/97/5 45/66/5 26/52/5
f 18/42/6 43/96/6 46/97/6 28/95/6
f 47/98/6 48/67/6 49/90/6 50/99/6
f 2/20/3 48/67/3 47/98/3 124/21/3
f 48/67/8 35/68/8 38/86/8 49/90/8
f 10/82/5 50/99/5 49/90/5 14/89/5
f 124/21/4 47/98/4 50/99/4 10/82/4
f 57/100/1 59/101/1 60/102/1 61/103/1 77/104/1
f 67/105/4 55/106/4 56/107/4 68/108/4 83/109/4
f 73/110/3 71/111/3 59/101/3 57/100/3
f 57/100/2 77/112/2 81/113/2 73/110/2
f 55/114/6 62/115/6 76/116/6 133/117/6 132/118/6 135/119/6 134/120/6 131/121/6 56/122/6
f 65/123/2 75/124/2 76/125/2 62/126/2
f 62/126/3 55/127/3 67/128/3 65/123/3
f 59/101/4 71/129/4 84/130/4 74/131/4 60/102/4
f 90/45/5 88/54/5 85/132/5 86/133/5 91/134/5 87/135/5 70/136/5 66/137/5 89/47/5 92/46/5
f 73/110/6 81/113/6 84/138/6 71/111/6
f 67/128/1 83/139/1 75/124/1 65/123/1
f 76/116/6 79/58/6 128/57/6 133/117/6
f 82/59/3 81/113/3 77/112/3 78/60/3
f 79/61/3 76/125/3 75/124/3 80/62/3
f 80/62/3 75/124/3 81/113/3 82/59/3
f 75/124/3 83/139/3 84/138/3 81/113/3
f 78/60/1 77/112/1 61/103/1 64/63/1
f 84/130/4 83/140/4 68/108/4 74/131/4
f 94/141/5 113/142/5 86/133/5
f 116/143/3 103/144/3 56/122/3
f 72/145/1 94/141/1 93/146/1 69/147/1
f 61/103/3 60/102/3 72/145/3 69/147/3
f 85/132/2 61/103/2 69/147/2 93/146/2
f 86/133/5 85/132/5 93/146/5 94/141/5
f 112/148/3 72/145/3 60/102/3
f 95/149/1 98/150/1 97/75/1 96/74/1
f 64/63/3 61/103/3 95/149/3 96/74/3
f 88/54/2 64/63/2 96/74/2 97/75/2
f 85/132/5 88/54/5 97/75/5 98/150/5
f 61/103/4 85/132/4 98/150/4 95/149/4
f 99/77/6 102/80/6 101/151/6 100/152/6
f 131/121/3 125/81/3 99/77/3 100/152/3
f 66/153/4 131/121/4 100/152/4 101/151/4
f 89/83/5 66/153/5 101/151/5 102/80/5
f 125/81/2 89/83/2 102/80/2 99/77/2
f 103/144/4 106/154/4 105/155/4 104/156/4
f 68/108/3 56/107/3 103/144/3 104/156/3
f 87/157/1 68/108/1 104/156/1 105/155/1
f 70/158/5 87/157/5 105/155/5 106/154/5
f 106/154/5 117/159/5 70/160/5
f 107/161/4 110/162/4 109/163/4 108/164/4
f 74/131/3 68/108/3 107/161/3 108/164/3
f 91/165/1 74/131/1 108/164/1 109/163/1
f 87/157/5 91/165/5 109/163/5 110/162/5
f 68/108/6 87/157/6 110/162/6 107/161/6
f 111/166/4 114/167/4 113/142/4 112/148/4
f 60/102/3 74/131/3 111/166/3 112/148/3
f 112/148/9 113/142/9 94/141/9 72/145/9
f 91/165/5 86/133/5 113/142/5 114/167/5
f 74/131/6 91/165/6 114/167/6 111/166/6
f 115/168/6 118/169/6 117/159/6 116/143/6
f 56/122/3 131/121/3 115/168/3 116/143/3
f 116/143/10 117/159/10 106/154/10 103/144/10
f 66/153/5 70/160/5 117/159/5 118/169/5
f 131/121/2 66/153/2 118/169/2 115/168/2
f 53/170/4 4/171/4 145/172/4 138/173/4
f 63/174/6 4/171/6 124/21/6 125/81/6
f 54/29/6 51/28/6 127/25/6 126/24/6
f 51/28/6 119/16/6 128/57/6 127/25/6
f 53/170/6 52/175/6 130/23/6 129/22/6
f 4/171/6 53/170/6 129/22/6 124/21/6
f 52/175/6 54/29/6 126/24/6 130/23/6
f 58/176/6 63/174/6 125/81/6 131/121/6
f 120/15/6 123/37/6 132/118/6 133/117/6
f 119/16/6 120/15/6 133/117/6 128/57/6
f 121/36/6 122/177/6 134/120/6 135/119/6
f 122/177/6 58/176/6 131/121/6 134/120/6
f 123/37/6 121/36/6 135/119/6 132/118/6
f 140/30/6 136/178/6 137/179/6 142/39/6 144/38/6 141/180/6
f 136/178/6 138/173/6 139/181/6 143/182/6 142/39/6 137/179/6
f 147/31/6 140/30/6 141/180/6 144/38/6 150/18/6 148/17/6
f 138/173/6 145/172/6 146/183/6 149/184/6 143/182/6 139/181/6
f 54/29/4 52/175/4 136/178/4 140/30/4
f 119/16/5 51/28/5 147/31/5 148/17/5
f 122/177/2 121/36/2 142/39/2 143/182/2
f 63/174/3 58/176/3 149/184/3 146/183/3
f 52/175/4 53/170/4 138/173/4 136/178/4
f 58/176/2 122/177/2 143/182/2 149/184/2
f 4/171/3 63/174/3 146/183/3 145/172/3
f 123/37/2 120/15/2 150/18/2 144/38/2
