# Blender v2.93.1 OBJ File: ''
# www.blender.org
mtllib MousePad.mtl
o Plane_Plane.001
v -0.439463 0.029277 1.052716
v 0.172554 0.029277 1.052716
v -0.439463 0.029277 0.288506
v 0.172554 0.029277 0.288506
v -0.439463 0.036038 0.288506
v -0.439463 0.036038 1.052716
v 0.172554 0.036038 1.052716
v 0.172554 0.036038 0.288506
vt 0.000000 0.000000
vt 0.000000 1.000000
vt 1.000000 1.000000
vt 1.000000 0.000000
vt 0.000000 0.000000
vt 1.000000 0.000000
vt 1.000000 1.000000
vt 0.000000 1.000000
vn 0.0000 -1.0000 0.0000
vn 0.0000 1.0000 0.0000
vn 1.0000 0.0000 0.0000
vn -1.0000 0.0000 0.0000
vn 0.0000 0.0000 -1.0000
vn 0.0000 0.0000 1.0000
usemtl None
s off
f 1/1/1 3/2/1 4/3/1 2/4/1
f 6/5/2 7/6/2 8/7/2 5/8/2
f 2/4/3 4/3/3 8/7/3 7/6/3
f 3/2/4 1/1/4 6/5/4 5/8/4
f 4/3/5 3/2/5 5/8/5 8/7/5
f 1/1/6 2/4/6 7/6/6 6/5/6
o Cube.004_Cube.005
v -0.246436 0.027338 0.557462
v -0.227566 0.071704 0.545012
v -0.246436 0.027338 0.457861
v -0.227566 0.071704 0.470311
v -0.095473 0.027338 0.557462
v -0.114344 0.071704 0.545012
v -0.095473 0.027338 0.457861
v -0.114344 0.071704 0.470311
v -0.274742 0.027338 0.507661
v -0.243204 0.055044 0.555329
v -0.239971 0.074945 0.507661
v -0.243204 0.055044 0.459994
v -0.170955 0.027338 0.439186
v -0.170955 0.074945 0.462126
v -0.098706 0.055044 0.459994
v -0.067168 0.027338 0.507661
v -0.101938 0.074945 0.507661
v -0.098706 0.055044 0.555329
v -0.170955 0.027338 0.576137
v -0.170955 0.074945 0.553196
v -0.270373 0.055364 0.507661
v -0.170955 0.055364 0.442068
v -0.071536 0.055364 0.507661
v -0.170955 0.055364 0.573255
v -0.170955 0.078632 0.507661
vt 0.375000 0.000000
vt 0.500000 0.000000
vt 0.500000 0.125000
vt 0.375000 0.125000
vt 0.625000 0.000000
vt 0.625000 0.125000
vt 0.625000 0.250000
vt 0.500000 0.250000
vt 0.375000 0.250000
vt 0.500000 0.375000
vt 0.375000 0.375000
vt 0.625000 0.375000
vt 0.625000 0.500000
vt 0.500000 0.500000
vt 0.375000 0.500000
vt 0.500000 0.625000
vt 0.375000 0.625000
vt 0.625000 0.625000
vt 0.625000 0.750000
vt 0.500000 0.750000
vt 0.375000 0.750000
vt 0.500000 0.875000
vt 0.375000 0.875000
vt 0.625000 0.875000
vt 0.625000 1.000000
vt 0.500000 1.000000
vt 0.375000 1.000000
vt 0.750000 0.500000
vt 0.750000 0.625000
vt 0.875000 0.500000
vt 0.875000 0.625000
vt 0.875000 0.750000
vt 0.750000 0.750000
vn -0.8608 0.1362 0.4904
vn -0.5512 0.7826 0.2893
vn -0.5512 0.7826 -0.2893
vn -0.8608 0.1362 -0.4904
vn -0.2395 0.1008 -0.9657
vn -0.1645 0.6743 -0.7199
vn 0.1645 0.6743 -0.7199
vn 0.2395 0.1008 -0.9657
vn 0.8608 0.1362 -0.4904
vn 0.5512 0.7826 -0.2893
vn 0.5512 0.7826 0.2893
vn 0.8608 0.1362 0.4904
vn 0.2395 0.1008 0.9657
vn 0.1645 0.6743 0.7199
vn -0.1645 0.6743 0.7199
vn -0.2395 0.1008 0.9657
vn 0.0608 0.9939 -0.0922
vn -0.0608 0.9939 -0.0922
vn -0.0608 0.9939 0.0922
vn 0.0608 0.9939 0.0922
vn 0.0000 -1.0000 0.0000
usemtl None
s off
f 9/9/7 18/10/7 29/11/7 17/12/7
f 18/10/8 10/13/8 19/14/8 29/11/8
f 29/11/9 19/14/9 12/15/9 20/16/9
f 17/12/10 29/11/10 20/16/10 11/17/10
f 11/17/11 20/16/11 30/18/11 21/19/11
f 20/16/12 12/15/12 22/20/12 30/18/12
f 30/18/13 22/20/13 16/21/13 23/22/13
f 21/19/14 30/18/14 23/22/14 15/23/14
f 15/23/15 23/22/15 31/24/15 24/25/15
f 23/22/16 16/21/16 25/26/16 31/24/16
f 31/24/17 25/26/17 14/27/17 26/28/17
f 24/25/18 31/24/18 26/28/18 13/29/18
f 13/29/19 26/28/19 32/30/19 27/31/19
f 26/28/20 14/27/20 28/32/20 32/30/20
f 32/30/21 28/32/21 10/33/21 18/34/21
f 27/31/22 32/30/22 18/34/22 9/35/22
f 16/21/23 22/36/23 33/37/23 25/26/23
f 22/36/24 12/38/24 19/39/24 33/37/24
f 33/37/25 19/39/25 10/40/25 28/41/25
f 25/26/26 33/37/26 28/41/26 14/27/26
f 11/17/27 21/19/27 15/23/27 24/25/27 13/29/27 27/31/27 9/35/27 17/12/27
