# Blender v2.93.1 OBJ File: ''
# www.blender.org
mtllib RocioDesk.mtl
o Cube.005_Cube.006
v 3.037052 -0.188587 8.897252
v 3.037052 -0.097474 8.897252
v 4.684077 -0.188587 8.362582
v 3.037052 -0.097474 8.177392
v 4.684077 -0.188587 8.897252
v 4.684077 -0.097474 8.897252
v 4.684077 -0.097474 8.177392
v 3.037052 -0.188587 8.362582
v 4.684077 -0.097474 8.102333
v 3.037052 -0.097474 8.102333
v 4.684077 -0.188587 8.292157
v 3.037052 -0.188587 8.292157
v 4.596658 -0.188587 8.362582
v 4.596658 -0.097474 8.177392
v 4.596658 -0.188587 8.897252
v 4.596658 -0.097474 8.897252
v 4.596658 -0.097474 8.102333
v 4.596658 -0.188587 8.292157
v 3.469111 -0.188587 8.362582
v 3.469111 -0.097474 8.897252
v 3.469111 -0.188587 8.292157
v 3.469111 -0.097474 8.177392
v 3.469111 -0.188587 8.897252
v 3.469111 -0.097474 8.102333
v 3.394307 -0.188587 8.362582
v 3.394307 -0.097474 8.897252
v 3.394307 -0.188587 8.292157
v 3.394307 -0.097474 8.177392
v 3.394307 -0.188587 8.897252
v 3.394307 -0.097474 8.102333
v 4.684077 -0.284357 8.292157
v 4.684077 -0.284357 8.362582
v 4.596658 -0.284357 8.362582
v 4.596658 -0.284357 8.292157
v 3.469111 -0.284357 8.362582
v 3.469111 -0.284357 8.292157
v 3.394307 -0.284357 8.362582
v 3.394307 -0.284357 8.292157
v 4.684077 -1.907503 8.362582
v 4.684077 -1.907503 8.292157
v 4.596658 -1.907503 8.362582
v 4.596658 -1.907503 8.292157
v 4.684077 -1.833702 8.362582
v 4.684077 -1.833702 8.292157
v 4.596658 -1.833702 8.292157
v 4.596658 -1.833702 8.362582
v 4.684077 -1.907503 8.236158
v 4.596658 -1.907503 8.236158
v 4.596658 -1.830971 8.259154
v 4.684077 -1.830971 8.259154
v 4.684077 -1.907503 8.416918
v 4.596658 -1.907503 8.416918
v 4.684077 -1.830971 8.396000
v 4.596658 -1.830971 8.396000
v 3.826512 -1.907503 8.292157
v 3.826512 -1.907503 8.362582
v 3.826512 -1.830971 8.292157
v 3.826512 -1.830971 8.362582
v 3.826512 -1.830971 8.259154
v 3.826512 -1.907503 8.236158
v 3.826512 -1.907503 8.416918
v 3.826512 -1.830971 8.396000
v 3.483810 -1.907503 8.292157
v 3.483810 -1.907503 8.362582
v 3.483810 -1.865089 8.292157
v 3.483810 -1.865089 8.362582
v 3.483810 -1.865089 8.259154
v 3.483810 -1.907503 8.236158
v 3.483810 -1.907503 8.416918
v 3.483810 -1.865089 8.396000
v 4.598567 -1.063936 8.292157
v 4.598567 -1.063936 8.362582
v 4.598567 -1.162840 8.362582
v 4.598567 -1.162840 8.292157
v 3.037052 -0.188587 6.017811
v 3.037052 -0.097474 6.017811
v 4.684077 -0.188587 6.552481
v 3.037052 -0.097474 6.737672
v 4.684077 -0.188587 6.017811
v 4.684077 -0.097474 6.017811
v 4.684077 -0.097474 6.737672
v 3.037052 -0.188587 6.552481
v 3.037052 -0.188587 7.457532
v 3.037052 -0.097474 7.457532
v 4.684077 -0.188587 7.457532
v 4.684077 -0.097474 7.457532
v 4.684077 -0.097474 6.812731
v 3.037052 -0.097474 6.812731
v 4.684077 -0.188587 6.622907
v 3.037052 -0.188587 6.622907
v 4.596658 -0.188587 6.552481
v 4.596658 -0.097474 6.737672
v 4.596658 -0.188587 6.017811
v 4.596658 -0.097474 6.017811
v 4.596658 -0.097474 7.457532
v 4.596658 -0.188587 7.457532
v 4.596658 -0.097474 6.812731
v 4.596658 -0.188587 6.622907
v 3.469111 -0.188587 6.552481
v 3.469111 -0.097474 6.017811
v 3.469111 -0.188587 7.457532
v 3.469111 -0.188587 6.622907
v 3.469111 -0.097474 6.737672
v 3.469111 -0.188587 6.017811
v 3.469111 -0.097474 7.457532
v 3.469111 -0.097474 6.812731
v 3.394307 -0.188587 6.552481
v 3.394307 -0.097474 6.017811
v 3.394307 -0.188587 7.457532
v 3.394307 -0.188587 6.622907
v 3.394307 -0.097474 6.737672
v 3.394307 -0.188587 6.017811
v 3.394307 -0.097474 7.457532
v 3.394307 -0.097474 6.812731
v 4.684077 -0.284357 6.622907
v 4.684077 -0.284357 7.457532
v 4.684077 -0.284357 6.552481
v 4.596658 -0.284357 6.552481
v 4.596658 -0.284357 7.457532
v 4.596658 -0.284357 6.622907
v 3.469111 -0.284357 6.552481
v 3.469111 -0.284357 6.622907
v 3.469111 -0.284357 7.457532
v 3.394307 -0.284357 6.552481
v 3.394307 -0.284357 7.457532
v 3.394307 -0.284357 6.622907
v 4.684077 -1.907503 6.552481
v 4.684077 -1.907503 6.622907
v 4.596658 -1.907503 6.552481
v 4.596658 -1.907503 6.622907
v 4.684077 -1.833702 6.552481
v 4.684077 -1.833702 6.622907
v 4.596658 -1.833702 6.622907
v 4.596658 -1.833702 6.552481
v 4.684077 -1.907503 6.678905
v 4.596658 -1.907503 6.678905
v 4.596658 -1.830971 6.655910
v 4.684077 -1.830971 6.655910
v 4.684077 -1.907503 6.498146
v 4.596658 -1.907503 6.498146
v 4.684077 -1.830971 6.519064
v 4.596658 -1.830971 6.519064
v 3.826512 -1.907503 6.622907
v 3.826512 -1.907503 6.552481
v 3.826512 -1.830971 6.622907
v 3.826512 -1.830971 6.552481
v 3.826512 -1.830971 6.655910
v 3.826512 -1.907503 6.678905
v 3.826512 -1.907503 6.498146
v 3.826512 -1.830971 6.519064
v 3.483810 -1.907503 6.622907
v 3.483810 -1.907503 6.552481
v 3.483810 -1.865089 6.622907
v 3.483810 -1.865089 6.552481
v 3.483810 -1.865089 6.655910
v 3.483810 -1.907503 6.678905
v 3.483810 -1.907503 6.498146
v 3.483810 -1.865089 6.519064
v 4.598567 -1.063936 6.622907
v 4.598567 -1.063936 6.552481
v 4.598567 -1.162840 6.552481
v 4.598567 -1.162840 6.622907
vt 0.375000 0.945773
vt 0.625000 0.945773
vt 0.625000 1.000000
vt 0.375000 1.000000
vt 0.361731 0.703579
vt 0.375000 0.703579
vt 0.375000 0.750000
vt 0.361731 0.750000
vt 0.820773 0.687500
vt 0.875000 0.687500
vt 0.875000 0.750000
vt 0.820773 0.750000
vt 0.361731 0.703579
vt 0.375000 0.703579
vt 0.820773 0.680983
vt 0.875000 0.680983
vt 0.625000 0.680983
vt 0.625000 0.687500
vt 0.625000 0.750000
vt 0.375000 0.697464
vt 0.375000 0.625000
vt 0.625000 0.625000
vt 0.820773 0.625000
vt 0.875000 0.625000
vt 0.375000 0.697464
vt 0.190582 0.625000
vt 0.361731 0.625000
vt 0.361731 0.697464
vt 0.190582 0.697464
vt 0.638269 0.625000
vt 0.638269 0.680983
vt 0.638269 0.687500
vt 0.190582 0.703579
vt 0.179227 0.703579
vt 0.179227 0.703579
vt 0.190582 0.703579
vt 0.638269 0.750000
vt 0.190582 0.750000
vt 0.625000 0.763269
vt 0.375000 0.763269
vt 0.179227 0.750000
vt 0.375000 0.625000
vt 0.179227 0.697464
vt 0.179227 0.697464
vt 0.809418 0.625000
vt 0.809418 0.680983
vt 0.809418 0.687500
vt 0.809418 0.750000
vt 0.625000 0.934418
vt 0.375000 0.934418
vt 0.125000 0.625000
vt 0.179227 0.625000
vt 0.125000 0.697464
vt 0.125000 0.703579
vt 0.125000 0.750000
vt 0.625000 0.062500
vt 0.625000 0.069017
vt 0.625000 0.125000
vt 0.375000 0.125000
vt 0.375000 0.052536
vt 0.375000 0.046421
vt 0.375000 0.000000
vt 0.625000 0.000000
vt 0.375000 0.697464
vt 0.375000 0.703579
vt 0.375000 0.703579
vt 0.375000 0.697464
vt 0.361731 0.625000
vt 0.361731 0.697464
vt 0.190582 0.697464
vt 0.190582 0.703579
vt 0.190582 0.697464
vt 0.179227 0.625000
vt 0.190582 0.625000
vt 0.361731 0.697464
vt 0.361731 0.703579
vt 0.361731 0.703579
vt 0.361731 0.697464
vt 0.361731 0.697464
vt 0.361731 0.703579
vt 0.375000 0.697464
vt 0.375000 0.697464
vt 0.375000 0.703579
vt 0.361731 0.703579
vt 0.179227 0.697464
vt 0.179227 0.703579
vt 0.361731 0.697464
vt 0.361731 0.697464
vt 0.361731 0.703579
vt 0.361731 0.697464
vt 0.375000 0.703579
vt 0.361731 0.703579
vt 0.361731 0.703579
vt 0.361731 0.697464
vt 0.361731 0.697464
vt 0.361731 0.697464
vt 0.361731 0.697464
vt 0.361731 0.697464
vt 0.361731 0.703579
vt 0.361731 0.703579
vt 0.361731 0.703579
vt 0.361731 0.703579
vt 0.361731 0.697464
vt 0.361731 0.703579
vt 0.375000 0.945773
vt 0.375000 1.000000
vt 0.625000 1.000000
vt 0.625000 0.945773
vt 0.361731 0.703579
vt 0.361731 0.750000
vt 0.375000 0.750000
vt 0.375000 0.703579
vt 0.820773 0.687500
vt 0.820773 0.750000
vt 0.875000 0.750000
vt 0.875000 0.687500
vt 0.375000 0.703579
vt 0.361731 0.703579
vt 0.820773 0.680983
vt 0.875000 0.680983
vt 0.625000 0.680983
vt 0.375000 0.697464
vt 0.625000 0.750000
vt 0.625000 0.687500
vt 0.375000 0.697464
vt 0.190582 0.697464
vt 0.361731 0.697464
vt 0.638269 0.680983
vt 0.638269 0.687500
vt 0.190582 0.703579
vt 0.190582 0.703579
vt 0.179227 0.703579
vt 0.179227 0.703579
vt 0.638269 0.750000
vt 0.190582 0.750000
vt 0.375000 0.763269
vt 0.625000 0.763269
vt 0.179227 0.750000
vt 0.179227 0.697464
vt 0.179227 0.697464
vt 0.809418 0.680983
vt 0.809418 0.687500
vt 0.809418 0.750000
vt 0.375000 0.934418
vt 0.625000 0.934418
vt 0.125000 0.697464
vt 0.125000 0.703579
vt 0.125000 0.750000
vt 0.625000 0.062500
vt 0.625000 0.000000
vt 0.375000 0.000000
vt 0.375000 0.046421
vt 0.375000 0.052536
vt 0.625000 0.069017
vt 0.375000 0.697464
vt 0.375000 0.697464
vt 0.375000 0.703579
vt 0.375000 0.703579
vt 0.361731 0.697464
vt 0.190582 0.697464
vt 0.190582 0.697464
vt 0.190582 0.703579
vt 0.361731 0.697464
vt 0.361731 0.703579
vt 0.361731 0.703579
vt 0.361731 0.703579
vt 0.361731 0.697464
vt 0.361731 0.697464
vt 0.375000 0.697464
vt 0.375000 0.697464
vt 0.361731 0.703579
vt 0.375000 0.703579
vt 0.179227 0.697464
vt 0.179227 0.703579
vt 0.361731 0.697464
vt 0.361731 0.697464
vt 0.361731 0.697464
vt 0.361731 0.703579
vt 0.375000 0.703579
vt 0.361731 0.703579
vt 0.361731 0.703579
vt 0.361731 0.697464
vt 0.361731 0.697464
vt 0.361731 0.697464
vt 0.361731 0.697464
vt 0.361731 0.697464
vt 0.361731 0.703579
vt 0.361731 0.703579
vt 0.361731 0.703579
vt 0.361731 0.703579
vt 0.361731 0.697464
vt 0.361731 0.703579
vn 0.0000 0.0000 1.0000
vn 0.0000 -1.0000 0.0000
vn 0.0000 1.0000 0.0000
vn 1.0000 0.0000 0.0000
vn -1.0000 0.0000 0.0000
vn 0.5681 0.8230 0.0000
vn 0.0000 0.0000 -1.0000
vn 0.0035 1.0000 0.0000
vn -1.0000 0.0028 0.0000
vn 0.0000 0.2878 -0.9577
vn 0.0000 0.9966 0.0825
vn 0.0000 0.2637 0.9646
vn 0.0000 0.9967 -0.0815
vn -0.0180 0.3606 -0.9326
vn 0.0018 0.9992 -0.0408
vn 0.0018 0.9991 0.0413
vn -0.0991 0.9951 0.0000
vn -0.0165 0.3318 0.9432
vn -0.5893 -0.8079 0.0000
vn -1.0000 -0.0024 0.0000
vn 0.5680 0.8230 0.0000
vn 0.0000 0.2878 0.9577
vn 0.0000 0.9966 -0.0825
vn 0.0000 0.2637 -0.9646
vn 0.0000 0.9967 0.0815
vn -0.0179 0.3606 0.9326
vn 0.0018 0.9992 0.0408
vn 0.0018 0.9991 -0.0413
vn -0.0165 0.3318 -0.9432
usemtl None
s off
f 29/1/1 26/2/1 2/3/1 1/4/1
f 13/5/2 3/6/2 5/7/2 15/8/2
f 28/9/3 4/10/3 2/11/3 26/12/3
f 3/6/1 13/5/1 33/13/1 32/14/1
f 30/15/3 10/16/3 4/10/3 28/9/3
f 9/17/4 7/18/4 6/19/4 5/7/4 3/6/4 11/20/4 85/21/4 86/22/4
f 113/23/3 84/24/3 10/16/3 30/15/3
f 11/20/4 3/6/4 32/14/4 31/25/4
f 101/26/2 96/27/2 18/28/2 21/29/2
f 86/22/3 95/30/3 17/31/3 9/17/3
f 9/17/3 17/31/3 14/32/3 7/18/3
f 19/33/1 25/34/1 37/35/1 35/36/1
f 7/18/3 14/32/3 16/37/3 6/19/3
f 19/33/2 13/5/2 15/8/2 23/38/2
f 5/7/1 6/19/1 16/39/1 15/40/1
f 25/34/2 19/33/2 23/38/2 29/41/2
f 85/21/4 11/20/4 31/25/4 116/42/4
f 25/34/5 27/43/5 38/44/5 37/35/5
f 95/30/3 105/45/3 24/46/3 17/31/3
f 17/31/3 24/46/3 22/47/3 14/32/3
f 14/32/3 22/47/3 20/48/3 16/37/3
f 15/40/1 16/39/1 20/49/1 23/50/1
f 83/51/2 109/52/2 27/43/2 12/53/2
f 12/53/2 27/43/2 25/34/2 8/54/2
f 8/54/2 25/34/2 29/41/2 1/55/2
f 105/45/3 113/23/3 30/15/3 24/46/3
f 24/46/3 30/15/3 28/9/3 22/47/3
f 22/47/3 28/9/3 26/12/3 20/48/3
f 23/50/1 20/49/1 26/2/1 29/1/1
f 4/56/5 10/57/5 84/58/5 83/59/5 12/60/5 8/61/5 1/62/5 2/63/5
f 44/64/4 43/65/4 39/66/4 40/67/4
f 119/68/2 116/42/2 31/25/2 34/69/2
f 36/70/2 34/69/2 33/13/2 35/36/2
f 36/70/6 35/36/6 72/71/6 71/72/6
f 125/73/2 123/74/2 36/70/2 38/44/2
f 27/43/5 109/52/5 125/73/5 38/44/5
f 21/29/7 18/28/7 34/69/7 36/70/7
f 18/28/5 96/27/5 119/68/5 34/69/5
f 101/26/4 21/29/4 36/70/4 123/74/4
f 13/5/1 19/33/1 35/36/1 33/13/1
f 42/75/2 40/67/2 39/66/2 41/76/2
f 46/77/8 45/78/8 57/79/8 58/80/8
f 44/64/4 40/67/4 47/81/4 50/82/4
f 41/76/2 39/66/2 51/83/2 52/84/2
f 34/69/7 31/25/7 44/64/7 45/78/7 74/85/7 71/72/7
f 46/77/9 73/86/9 74/85/9 45/78/9
f 31/25/4 32/14/4 43/65/4 44/64/4
f 49/87/10 50/82/10 47/81/10 48/88/10
f 42/75/2 41/76/2 56/89/2 55/90/2
f 40/67/2 42/75/2 48/88/2 47/81/2
f 45/78/11 44/64/11 50/82/11 49/87/11
f 53/91/12 54/92/12 52/84/12 51/83/12
f 43/65/13 46/77/13 54/92/13 53/91/13
f 39/66/4 43/65/4 53/91/4 51/83/4
f 41/76/2 52/84/2 61/93/2 56/89/2
f 59/94/14 60/95/14 68/96/14 67/97/14
f 60/95/2 55/90/2 63/98/2 68/96/2
f 56/89/2 61/93/2 69/99/2 64/100/2
f 48/88/2 42/75/2 55/90/2 60/95/2
f 54/92/15 46/77/15 58/80/15 62/101/15
f 49/87/10 48/88/10 60/95/10 59/94/10
f 52/84/12 54/92/12 62/101/12 61/93/12
f 45/78/16 49/87/16 59/94/16 57/79/16
f 66/102/5 65/103/5 63/98/5 64/100/5
f 63/98/5 65/103/5 67/97/5 68/96/5
f 66/102/5 64/100/5 69/99/5 70/104/5
f 55/90/2 56/89/2 64/100/2 63/98/2
f 62/101/17 58/80/17 66/102/17 70/104/17
f 61/93/18 62/101/18 70/104/18 69/99/18
f 57/79/17 59/94/17 67/97/17 65/103/17
f 58/80/17 57/79/17 65/103/17 66/102/17
f 37/35/19 38/44/19 74/85/19 73/86/19
f 38/44/7 36/70/7 71/72/7 74/85/7
f 35/36/1 37/35/1 73/86/1 72/71/1
f 33/13/20 34/69/20 71/72/20 72/71/20
f 32/14/1 33/13/1 72/71/1 73/86/1 46/77/1 43/65/1
f 112/105/7 75/106/7 76/107/7 108/108/7
f 91/109/2 93/110/2 79/111/2 77/112/2
f 111/113/3 108/114/3 76/115/3 78/116/3
f 77/112/7 117/117/7 118/118/7 91/109/7
f 114/119/3 111/113/3 78/116/3 88/120/3
f 87/121/4 86/22/4 85/21/4 89/122/4 77/112/4 79/111/4 80/123/4 81/124/4
f 113/23/3 114/119/3 88/120/3 84/24/3
f 89/122/4 115/125/4 117/117/4 77/112/4
f 101/26/2 102/126/2 98/127/2 96/27/2
f 86/22/3 87/121/3 97/128/3 95/30/3
f 87/121/3 81/124/3 92/129/3 97/128/3
f 99/130/7 121/131/7 124/132/7 107/133/7
f 81/124/3 80/123/3 94/134/3 92/129/3
f 99/130/2 104/135/2 93/110/2 91/109/2
f 79/111/7 93/136/7 94/137/7 80/123/7
f 107/133/2 112/138/2 104/135/2 99/130/2
f 85/21/4 116/42/4 115/125/4 89/122/4
f 107/133/5 124/132/5 126/139/5 110/140/5
f 95/30/3 97/128/3 106/141/3 105/45/3
f 97/128/3 92/129/3 103/142/3 106/141/3
f 92/129/3 94/134/3 100/143/3 103/142/3
f 93/136/7 104/144/7 100/145/7 94/137/7
f 83/51/2 90/146/2 110/140/2 109/52/2
f 90/146/2 82/147/2 107/133/2 110/140/2
f 82/147/2 75/148/2 112/138/2 107/133/2
f 105/45/3 106/141/3 114/119/3 113/23/3
f 106/141/3 103/142/3 111/113/3 114/119/3
f 103/142/3 100/143/3 108/114/3 111/113/3
f 104/144/7 112/105/7 108/108/7 100/145/7
f 78/149/5 76/150/5 75/151/5 82/152/5 90/153/5 83/59/5 84/58/5 88/154/5
f 132/155/4 128/156/4 127/157/4 131/158/4
f 119/68/2 120/159/2 115/125/2 116/42/2
f 122/160/2 121/131/2 118/118/2 120/159/2
f 122/160/21 159/161/21 160/162/21 121/131/21
f 125/73/2 126/139/2 122/160/2 123/74/2
f 110/140/5 126/139/5 125/73/5 109/52/5
f 102/126/1 122/160/1 120/159/1 98/127/1
f 98/127/5 120/159/5 119/68/5 96/27/5
f 101/26/4 123/74/4 122/160/4 102/126/4
f 91/109/7 118/118/7 121/131/7 99/130/7
f 130/163/2 129/164/2 127/157/2 128/156/2
f 134/165/8 146/166/8 145/167/8 133/168/8
f 132/155/4 138/169/4 135/170/4 128/156/4
f 129/164/2 140/171/2 139/172/2 127/157/2
f 120/159/1 159/161/1 162/173/1 133/168/1 132/155/1 115/125/1
f 134/165/9 133/168/9 162/173/9 161/174/9
f 115/125/4 132/155/4 131/158/4 117/117/4
f 137/175/22 136/176/22 135/170/22 138/169/22
f 130/163/2 143/177/2 144/178/2 129/164/2
f 128/156/2 135/170/2 136/176/2 130/163/2
f 133/168/23 137/175/23 138/169/23 132/155/23
f 141/179/24 139/172/24 140/171/24 142/180/24
f 131/158/25 141/179/25 142/180/25 134/165/25
f 127/157/4 139/172/4 141/179/4 131/158/4
f 129/164/2 144/178/2 149/181/2 140/171/2
f 147/182/26 155/183/26 156/184/26 148/185/26
f 148/185/2 156/184/2 151/186/2 143/177/2
f 144/178/2 152/187/2 157/188/2 149/181/2
f 136/176/2 148/185/2 143/177/2 130/163/2
f 142/180/27 150/189/27 146/166/27 134/165/27
f 137/175/22 147/182/22 148/185/22 136/176/22
f 140/171/24 149/181/24 150/189/24 142/180/24
f 133/168/28 145/167/28 147/182/28 137/175/28
f 154/190/5 152/187/5 151/186/5 153/191/5
f 151/186/5 156/184/5 155/183/5 153/191/5
f 154/190/5 158/192/5 157/188/5 152/187/5
f 143/177/2 151/186/2 152/187/2 144/178/2
f 150/189/17 158/192/17 154/190/17 146/166/17
f 149/181/29 157/188/29 158/192/29 150/189/29
f 145/167/17 153/191/17 155/183/17 147/182/17
f 146/166/17 154/190/17 153/191/17 145/167/17
f 124/132/19 161/174/19 162/173/19 126/139/19
f 126/139/1 162/173/1 159/161/1 122/160/1
f 121/131/7 160/162/7 161/174/7 124/132/7
f 118/118/20 160/162/20 159/161/20 120/159/20
f 117/117/7 131/158/7 134/165/7 161/174/7 160/162/7 118/118/7
